<?xml version="1.0" encoding="utf-8"?>
<!-- Generator: Adobe Illustrator 16.0.0, SVG Export Plug-In . SVG Version: 6.00 Build 0)  -->
<!DOCTYPE svg PUBLIC "-//W3C//DTD SVG 1.1//EN" "http://www.w3.org/Graphics/SVG/1.1/DTD/svg11.dtd">
<svg version="1.1" id="Camada_1" xmlns="http://www.w3.org/2000/svg" xmlns:xlink="http://www.w3.org/1999/xlink" x="0px" y="0px"
	 width="24px" height="24px" viewBox="0 0 24 24" enable-background="new 0 0 24 24" xml:space="preserve">
<path fill="#20B2AA" d="M10,9.333l5.333,2.662L10,14.667V9.333z M24,5v14c0,2.762-2.238,5-5,5H5c-2.761,0-5-2.238-5-5V5
	c0-2.761,2.239-5,5-5h14C21.762,0,24,2.239,24,5z M20,12c-0.02-4.123-0.323-5.7-2.923-5.877c-2.403-0.164-7.754-0.163-10.153,0
	C4.326,6.3,4.02,7.87,4,12c0.02,4.123,0.323,5.7,2.923,5.877c2.399,0.163,7.75,0.164,10.153,0C19.674,17.7,19.98,16.13,20,12z"/>
</svg>
